<?xml version="1.0" encoding="utf-8"?>
<!-- Generator: Adobe Illustrator 24.1.3, SVG Export Plug-In . SVG Version: 6.00 Build 0)  -->
<svg version="1.1" id="Layer_1" xmlns="http://www.w3.org/2000/svg" xmlns:xlink="http://www.w3.org/1999/xlink" x="0px" y="0px"
	 viewBox="0 0 800 800" style="enable-background:new 0 0 800 800;" xml:space="preserve">
<style type="text/css">
	.st0{fill:#701414;}
</style>
<g>
	<path class="st0" d="M785.3,214.7l-200-200c-19.5-19.5-51.2-19.5-70.7,0c-19.5,19.5-19.5,51.2,0,70.7l200,200
		c9.8,9.8,22.6,14.6,35.4,14.6s25.6-4.9,35.3-14.6C804.9,265.8,804.9,234.2,785.3,214.7z"/>
	<path class="st0" d="M435.3,114.7C426,105.3,413.3,100,400,100H150c-24.5,0-45.3,17.7-49.3,41.8L0,725l253.7-249.4
		c-2.2-8.2-3.7-16.7-3.7-25.6c0-55.1,44.9-100,100-100s100,44.9,100,100s-44.9,100-100,100c-8.9,0-17.3-1.6-25.6-3.7L75,800
		l583.2-100.7c24.1-4,41.8-24.8,41.8-49.3V400c0-13.3-5.3-26-14.7-35.3L435.3,114.7z"/>
</g>
</svg>
